<mxfile host="app.diagrams.net" modified="2024-02-09T10:52:06.863Z" agent="Mozilla/5.0 (Windows NT 10.0; Win64; x64; rv:122.0) Gecko/20100101 Firefox/122.0" etag="654rVfeeOaLk_zf9DNEp" version="23.1.2" type="device">
  <diagram id="R2lEEEUBdFMjLlhIrx00" name="Page-1">
    <mxGraphModel dx="2284" dy="774" grid="1" gridSize="10" guides="1" tooltips="1" connect="1" arrows="1" fold="1" page="1" pageScale="1" pageWidth="850" pageHeight="1100" math="0" shadow="0" extFonts="Permanent Marker^https://fonts.googleapis.com/css?family=Permanent+Marker">
      <root>
        <mxCell id="0" />
        <mxCell id="1" parent="0" />
        <mxCell id="C-vyLk0tnHw3VtMMgP7b-23" value="ticket" style="shape=table;startSize=30;container=1;collapsible=1;childLayout=tableLayout;fixedRows=1;rowLines=0;fontStyle=1;align=center;resizeLast=1;" parent="1" vertex="1">
          <mxGeometry x="285" y="200" width="220" height="220" as="geometry" />
        </mxCell>
        <mxCell id="C-vyLk0tnHw3VtMMgP7b-24" value="" style="shape=partialRectangle;collapsible=0;dropTarget=0;pointerEvents=0;fillColor=none;points=[[0,0.5],[1,0.5]];portConstraint=eastwest;top=0;left=0;right=0;bottom=1;" parent="C-vyLk0tnHw3VtMMgP7b-23" vertex="1">
          <mxGeometry y="30" width="220" height="30" as="geometry" />
        </mxCell>
        <mxCell id="C-vyLk0tnHw3VtMMgP7b-25" value="PK" style="shape=partialRectangle;overflow=hidden;connectable=0;fillColor=none;top=0;left=0;bottom=0;right=0;fontStyle=1;" parent="C-vyLk0tnHw3VtMMgP7b-24" vertex="1">
          <mxGeometry width="30" height="30" as="geometry">
            <mxRectangle width="30" height="30" as="alternateBounds" />
          </mxGeometry>
        </mxCell>
        <mxCell id="C-vyLk0tnHw3VtMMgP7b-26" value="ticket_id" style="shape=partialRectangle;overflow=hidden;connectable=0;fillColor=none;top=0;left=0;bottom=0;right=0;align=left;spacingLeft=6;fontStyle=5;" parent="C-vyLk0tnHw3VtMMgP7b-24" vertex="1">
          <mxGeometry x="30" width="110" height="30" as="geometry">
            <mxRectangle width="110" height="30" as="alternateBounds" />
          </mxGeometry>
        </mxCell>
        <mxCell id="Tf2M2dXs2WBN8A7UbvzI-1" value="integer" style="shape=partialRectangle;overflow=hidden;connectable=0;fillColor=none;top=0;left=0;bottom=0;right=0;align=left;spacingLeft=6;fontStyle=5;" parent="C-vyLk0tnHw3VtMMgP7b-24" vertex="1">
          <mxGeometry x="140" width="80" height="30" as="geometry">
            <mxRectangle width="80" height="30" as="alternateBounds" />
          </mxGeometry>
        </mxCell>
        <mxCell id="C-vyLk0tnHw3VtMMgP7b-27" value="" style="shape=partialRectangle;collapsible=0;dropTarget=0;pointerEvents=0;fillColor=none;points=[[0,0.5],[1,0.5]];portConstraint=eastwest;top=0;left=0;right=0;bottom=0;" parent="C-vyLk0tnHw3VtMMgP7b-23" vertex="1">
          <mxGeometry y="60" width="220" height="30" as="geometry" />
        </mxCell>
        <mxCell id="C-vyLk0tnHw3VtMMgP7b-28" value="FK" style="shape=partialRectangle;overflow=hidden;connectable=0;fillColor=none;top=0;left=0;bottom=0;right=0;" parent="C-vyLk0tnHw3VtMMgP7b-27" vertex="1">
          <mxGeometry width="30" height="30" as="geometry">
            <mxRectangle width="30" height="30" as="alternateBounds" />
          </mxGeometry>
        </mxCell>
        <mxCell id="C-vyLk0tnHw3VtMMgP7b-29" value="customer_id" style="shape=partialRectangle;overflow=hidden;connectable=0;fillColor=none;top=0;left=0;bottom=0;right=0;align=left;spacingLeft=6;" parent="C-vyLk0tnHw3VtMMgP7b-27" vertex="1">
          <mxGeometry x="30" width="110" height="30" as="geometry">
            <mxRectangle width="110" height="30" as="alternateBounds" />
          </mxGeometry>
        </mxCell>
        <mxCell id="Tf2M2dXs2WBN8A7UbvzI-2" value="integer" style="shape=partialRectangle;overflow=hidden;connectable=0;fillColor=none;top=0;left=0;bottom=0;right=0;align=left;spacingLeft=6;" parent="C-vyLk0tnHw3VtMMgP7b-27" vertex="1">
          <mxGeometry x="140" width="80" height="30" as="geometry">
            <mxRectangle width="80" height="30" as="alternateBounds" />
          </mxGeometry>
        </mxCell>
        <mxCell id="Tf2M2dXs2WBN8A7UbvzI-134" value="" style="shape=partialRectangle;collapsible=0;dropTarget=0;pointerEvents=0;fillColor=none;points=[[0,0.5],[1,0.5]];portConstraint=eastwest;top=0;left=0;right=0;bottom=0;" parent="C-vyLk0tnHw3VtMMgP7b-23" vertex="1">
          <mxGeometry y="90" width="220" height="30" as="geometry" />
        </mxCell>
        <mxCell id="Tf2M2dXs2WBN8A7UbvzI-135" value="FK" style="shape=partialRectangle;overflow=hidden;connectable=0;fillColor=none;top=0;left=0;bottom=0;right=0;" parent="Tf2M2dXs2WBN8A7UbvzI-134" vertex="1">
          <mxGeometry width="30" height="30" as="geometry">
            <mxRectangle width="30" height="30" as="alternateBounds" />
          </mxGeometry>
        </mxCell>
        <mxCell id="Tf2M2dXs2WBN8A7UbvzI-136" value="screening_id" style="shape=partialRectangle;overflow=hidden;connectable=0;fillColor=none;top=0;left=0;bottom=0;right=0;align=left;spacingLeft=6;" parent="Tf2M2dXs2WBN8A7UbvzI-134" vertex="1">
          <mxGeometry x="30" width="110" height="30" as="geometry">
            <mxRectangle width="110" height="30" as="alternateBounds" />
          </mxGeometry>
        </mxCell>
        <mxCell id="Tf2M2dXs2WBN8A7UbvzI-137" value="integer" style="shape=partialRectangle;overflow=hidden;connectable=0;fillColor=none;top=0;left=0;bottom=0;right=0;align=left;spacingLeft=6;" parent="Tf2M2dXs2WBN8A7UbvzI-134" vertex="1">
          <mxGeometry x="140" width="80" height="30" as="geometry">
            <mxRectangle width="80" height="30" as="alternateBounds" />
          </mxGeometry>
        </mxCell>
        <mxCell id="Tf2M2dXs2WBN8A7UbvzI-187" value="" style="shape=partialRectangle;collapsible=0;dropTarget=0;pointerEvents=0;fillColor=none;points=[[0,0.5],[1,0.5]];portConstraint=eastwest;top=0;left=0;right=0;bottom=0;" parent="C-vyLk0tnHw3VtMMgP7b-23" vertex="1">
          <mxGeometry y="120" width="220" height="30" as="geometry" />
        </mxCell>
        <mxCell id="Tf2M2dXs2WBN8A7UbvzI-188" value="" style="shape=partialRectangle;overflow=hidden;connectable=0;fillColor=none;top=0;left=0;bottom=0;right=0;" parent="Tf2M2dXs2WBN8A7UbvzI-187" vertex="1">
          <mxGeometry width="30" height="30" as="geometry">
            <mxRectangle width="30" height="30" as="alternateBounds" />
          </mxGeometry>
        </mxCell>
        <mxCell id="Tf2M2dXs2WBN8A7UbvzI-189" value="number_of_seats" style="shape=partialRectangle;overflow=hidden;connectable=0;fillColor=none;top=0;left=0;bottom=0;right=0;align=left;spacingLeft=6;" parent="Tf2M2dXs2WBN8A7UbvzI-187" vertex="1">
          <mxGeometry x="30" width="110" height="30" as="geometry">
            <mxRectangle width="110" height="30" as="alternateBounds" />
          </mxGeometry>
        </mxCell>
        <mxCell id="Tf2M2dXs2WBN8A7UbvzI-190" value="integer" style="shape=partialRectangle;overflow=hidden;connectable=0;fillColor=none;top=0;left=0;bottom=0;right=0;align=left;spacingLeft=6;" parent="Tf2M2dXs2WBN8A7UbvzI-187" vertex="1">
          <mxGeometry x="140" width="80" height="30" as="geometry">
            <mxRectangle width="80" height="30" as="alternateBounds" />
          </mxGeometry>
        </mxCell>
        <mxCell id="XKIDPTuCICJZPU0VLD_5-26" value="" style="shape=partialRectangle;collapsible=0;dropTarget=0;pointerEvents=0;fillColor=none;points=[[0,0.5],[1,0.5]];portConstraint=eastwest;top=0;left=0;right=0;bottom=0;" vertex="1" parent="C-vyLk0tnHw3VtMMgP7b-23">
          <mxGeometry y="150" width="220" height="30" as="geometry" />
        </mxCell>
        <mxCell id="XKIDPTuCICJZPU0VLD_5-27" value="" style="shape=partialRectangle;overflow=hidden;connectable=0;fillColor=none;top=0;left=0;bottom=0;right=0;" vertex="1" parent="XKIDPTuCICJZPU0VLD_5-26">
          <mxGeometry width="30" height="30" as="geometry">
            <mxRectangle width="30" height="30" as="alternateBounds" />
          </mxGeometry>
        </mxCell>
        <mxCell id="XKIDPTuCICJZPU0VLD_5-28" value="created_at" style="shape=partialRectangle;overflow=hidden;connectable=0;fillColor=none;top=0;left=0;bottom=0;right=0;align=left;spacingLeft=6;" vertex="1" parent="XKIDPTuCICJZPU0VLD_5-26">
          <mxGeometry x="30" width="110" height="30" as="geometry">
            <mxRectangle width="110" height="30" as="alternateBounds" />
          </mxGeometry>
        </mxCell>
        <mxCell id="XKIDPTuCICJZPU0VLD_5-29" value="timestamp " style="shape=partialRectangle;overflow=hidden;connectable=0;fillColor=none;top=0;left=0;bottom=0;right=0;align=left;spacingLeft=6;" vertex="1" parent="XKIDPTuCICJZPU0VLD_5-26">
          <mxGeometry x="140" width="80" height="30" as="geometry">
            <mxRectangle width="80" height="30" as="alternateBounds" />
          </mxGeometry>
        </mxCell>
        <mxCell id="XKIDPTuCICJZPU0VLD_5-30" value="" style="shape=partialRectangle;collapsible=0;dropTarget=0;pointerEvents=0;fillColor=none;points=[[0,0.5],[1,0.5]];portConstraint=eastwest;top=0;left=0;right=0;bottom=0;" vertex="1" parent="C-vyLk0tnHw3VtMMgP7b-23">
          <mxGeometry y="180" width="220" height="30" as="geometry" />
        </mxCell>
        <mxCell id="XKIDPTuCICJZPU0VLD_5-31" value="" style="shape=partialRectangle;overflow=hidden;connectable=0;fillColor=none;top=0;left=0;bottom=0;right=0;" vertex="1" parent="XKIDPTuCICJZPU0VLD_5-30">
          <mxGeometry width="30" height="30" as="geometry">
            <mxRectangle width="30" height="30" as="alternateBounds" />
          </mxGeometry>
        </mxCell>
        <mxCell id="XKIDPTuCICJZPU0VLD_5-32" value="updated_at" style="shape=partialRectangle;overflow=hidden;connectable=0;fillColor=none;top=0;left=0;bottom=0;right=0;align=left;spacingLeft=6;" vertex="1" parent="XKIDPTuCICJZPU0VLD_5-30">
          <mxGeometry x="30" width="110" height="30" as="geometry">
            <mxRectangle width="110" height="30" as="alternateBounds" />
          </mxGeometry>
        </mxCell>
        <mxCell id="XKIDPTuCICJZPU0VLD_5-33" value="timestamp " style="shape=partialRectangle;overflow=hidden;connectable=0;fillColor=none;top=0;left=0;bottom=0;right=0;align=left;spacingLeft=6;" vertex="1" parent="XKIDPTuCICJZPU0VLD_5-30">
          <mxGeometry x="140" width="80" height="30" as="geometry">
            <mxRectangle width="80" height="30" as="alternateBounds" />
          </mxGeometry>
        </mxCell>
        <mxCell id="Tf2M2dXs2WBN8A7UbvzI-161" style="edgeStyle=orthogonalEdgeStyle;rounded=0;orthogonalLoop=1;jettySize=auto;html=1;endArrow=ERoneToMany;endFill=0;startArrow=ERmandOne;startFill=0;" parent="1" source="Tf2M2dXs2WBN8A7UbvzI-7" target="C-vyLk0tnHw3VtMMgP7b-23" edge="1">
          <mxGeometry relative="1" as="geometry" />
        </mxCell>
        <mxCell id="XKIDPTuCICJZPU0VLD_5-6" style="edgeStyle=orthogonalEdgeStyle;rounded=0;orthogonalLoop=1;jettySize=auto;html=1;startArrow=ERmandOne;startFill=0;endArrow=ERoneToMany;endFill=0;" edge="1" parent="1" source="Tf2M2dXs2WBN8A7UbvzI-7" target="da01DfQkahHVoAJEi5zR-56">
          <mxGeometry relative="1" as="geometry">
            <Array as="points">
              <mxPoint x="320" y="440" />
              <mxPoint x="170" y="440" />
            </Array>
          </mxGeometry>
        </mxCell>
        <mxCell id="Tf2M2dXs2WBN8A7UbvzI-7" value="screening" style="shape=table;startSize=30;container=1;collapsible=1;childLayout=tableLayout;fixedRows=1;rowLines=0;fontStyle=1;align=center;resizeLast=1;" parent="1" vertex="1">
          <mxGeometry x="280" y="505" width="230" height="250" as="geometry" />
        </mxCell>
        <mxCell id="Tf2M2dXs2WBN8A7UbvzI-8" value="" style="shape=partialRectangle;collapsible=0;dropTarget=0;pointerEvents=0;fillColor=none;points=[[0,0.5],[1,0.5]];portConstraint=eastwest;top=0;left=0;right=0;bottom=1;" parent="Tf2M2dXs2WBN8A7UbvzI-7" vertex="1">
          <mxGeometry y="30" width="230" height="30" as="geometry" />
        </mxCell>
        <mxCell id="Tf2M2dXs2WBN8A7UbvzI-9" value="PK" style="shape=partialRectangle;overflow=hidden;connectable=0;fillColor=none;top=0;left=0;bottom=0;right=0;fontStyle=1;" parent="Tf2M2dXs2WBN8A7UbvzI-8" vertex="1">
          <mxGeometry width="30" height="30" as="geometry">
            <mxRectangle width="30" height="30" as="alternateBounds" />
          </mxGeometry>
        </mxCell>
        <mxCell id="Tf2M2dXs2WBN8A7UbvzI-10" value="screening_id" style="shape=partialRectangle;overflow=hidden;connectable=0;fillColor=none;top=0;left=0;bottom=0;right=0;align=left;spacingLeft=6;fontStyle=5;" parent="Tf2M2dXs2WBN8A7UbvzI-8" vertex="1">
          <mxGeometry x="30" width="105" height="30" as="geometry">
            <mxRectangle width="105" height="30" as="alternateBounds" />
          </mxGeometry>
        </mxCell>
        <mxCell id="Tf2M2dXs2WBN8A7UbvzI-11" value="integer" style="shape=partialRectangle;overflow=hidden;connectable=0;fillColor=none;top=0;left=0;bottom=0;right=0;align=left;spacingLeft=6;fontStyle=5;" parent="Tf2M2dXs2WBN8A7UbvzI-8" vertex="1">
          <mxGeometry x="135" width="95" height="30" as="geometry">
            <mxRectangle width="95" height="30" as="alternateBounds" />
          </mxGeometry>
        </mxCell>
        <mxCell id="Tf2M2dXs2WBN8A7UbvzI-83" value="" style="shape=partialRectangle;collapsible=0;dropTarget=0;pointerEvents=0;fillColor=none;points=[[0,0.5],[1,0.5]];portConstraint=eastwest;top=0;left=0;right=0;bottom=0;" parent="Tf2M2dXs2WBN8A7UbvzI-7" vertex="1">
          <mxGeometry y="60" width="230" height="30" as="geometry" />
        </mxCell>
        <mxCell id="Tf2M2dXs2WBN8A7UbvzI-84" value="" style="shape=partialRectangle;overflow=hidden;connectable=0;fillColor=none;top=0;left=0;bottom=0;right=0;" parent="Tf2M2dXs2WBN8A7UbvzI-83" vertex="1">
          <mxGeometry width="30" height="30" as="geometry">
            <mxRectangle width="30" height="30" as="alternateBounds" />
          </mxGeometry>
        </mxCell>
        <mxCell id="Tf2M2dXs2WBN8A7UbvzI-85" value="startsAt" style="shape=partialRectangle;overflow=hidden;connectable=0;fillColor=none;top=0;left=0;bottom=0;right=0;align=left;spacingLeft=6;" parent="Tf2M2dXs2WBN8A7UbvzI-83" vertex="1">
          <mxGeometry x="30" width="105" height="30" as="geometry">
            <mxRectangle width="105" height="30" as="alternateBounds" />
          </mxGeometry>
        </mxCell>
        <mxCell id="Tf2M2dXs2WBN8A7UbvzI-86" value="varchar(25)" style="shape=partialRectangle;overflow=hidden;connectable=0;fillColor=none;top=0;left=0;bottom=0;right=0;align=left;spacingLeft=6;" parent="Tf2M2dXs2WBN8A7UbvzI-83" vertex="1">
          <mxGeometry x="135" width="95" height="30" as="geometry">
            <mxRectangle width="95" height="30" as="alternateBounds" />
          </mxGeometry>
        </mxCell>
        <mxCell id="Tf2M2dXs2WBN8A7UbvzI-12" value="" style="shape=partialRectangle;collapsible=0;dropTarget=0;pointerEvents=0;fillColor=none;points=[[0,0.5],[1,0.5]];portConstraint=eastwest;top=0;left=0;right=0;bottom=0;" parent="Tf2M2dXs2WBN8A7UbvzI-7" vertex="1">
          <mxGeometry y="90" width="230" height="30" as="geometry" />
        </mxCell>
        <mxCell id="Tf2M2dXs2WBN8A7UbvzI-13" value="FK" style="shape=partialRectangle;overflow=hidden;connectable=0;fillColor=none;top=0;left=0;bottom=0;right=0;" parent="Tf2M2dXs2WBN8A7UbvzI-12" vertex="1">
          <mxGeometry width="30" height="30" as="geometry">
            <mxRectangle width="30" height="30" as="alternateBounds" />
          </mxGeometry>
        </mxCell>
        <mxCell id="Tf2M2dXs2WBN8A7UbvzI-14" value="display_id" style="shape=partialRectangle;overflow=hidden;connectable=0;fillColor=none;top=0;left=0;bottom=0;right=0;align=left;spacingLeft=6;" parent="Tf2M2dXs2WBN8A7UbvzI-12" vertex="1">
          <mxGeometry x="30" width="105" height="30" as="geometry">
            <mxRectangle width="105" height="30" as="alternateBounds" />
          </mxGeometry>
        </mxCell>
        <mxCell id="Tf2M2dXs2WBN8A7UbvzI-15" value="integer" style="shape=partialRectangle;overflow=hidden;connectable=0;fillColor=none;top=0;left=0;bottom=0;right=0;align=left;spacingLeft=6;" parent="Tf2M2dXs2WBN8A7UbvzI-12" vertex="1">
          <mxGeometry x="135" width="95" height="30" as="geometry">
            <mxRectangle width="95" height="30" as="alternateBounds" />
          </mxGeometry>
        </mxCell>
        <mxCell id="Tf2M2dXs2WBN8A7UbvzI-87" value="" style="shape=partialRectangle;collapsible=0;dropTarget=0;pointerEvents=0;fillColor=none;points=[[0,0.5],[1,0.5]];portConstraint=eastwest;top=0;left=0;right=0;bottom=0;" parent="Tf2M2dXs2WBN8A7UbvzI-7" vertex="1">
          <mxGeometry y="120" width="230" height="30" as="geometry" />
        </mxCell>
        <mxCell id="Tf2M2dXs2WBN8A7UbvzI-88" value="FK" style="shape=partialRectangle;overflow=hidden;connectable=0;fillColor=none;top=0;left=0;bottom=0;right=0;" parent="Tf2M2dXs2WBN8A7UbvzI-87" vertex="1">
          <mxGeometry width="30" height="30" as="geometry">
            <mxRectangle width="30" height="30" as="alternateBounds" />
          </mxGeometry>
        </mxCell>
        <mxCell id="Tf2M2dXs2WBN8A7UbvzI-89" value="movie_id" style="shape=partialRectangle;overflow=hidden;connectable=0;fillColor=none;top=0;left=0;bottom=0;right=0;align=left;spacingLeft=6;" parent="Tf2M2dXs2WBN8A7UbvzI-87" vertex="1">
          <mxGeometry x="30" width="105" height="30" as="geometry">
            <mxRectangle width="105" height="30" as="alternateBounds" />
          </mxGeometry>
        </mxCell>
        <mxCell id="Tf2M2dXs2WBN8A7UbvzI-90" value="integer" style="shape=partialRectangle;overflow=hidden;connectable=0;fillColor=none;top=0;left=0;bottom=0;right=0;align=left;spacingLeft=6;" parent="Tf2M2dXs2WBN8A7UbvzI-87" vertex="1">
          <mxGeometry x="135" width="95" height="30" as="geometry">
            <mxRectangle width="95" height="30" as="alternateBounds" />
          </mxGeometry>
        </mxCell>
        <mxCell id="Tf2M2dXs2WBN8A7UbvzI-162" value="" style="shape=partialRectangle;collapsible=0;dropTarget=0;pointerEvents=0;fillColor=none;points=[[0,0.5],[1,0.5]];portConstraint=eastwest;top=0;left=0;right=0;bottom=0;" parent="Tf2M2dXs2WBN8A7UbvzI-7" vertex="1">
          <mxGeometry y="150" width="230" height="30" as="geometry" />
        </mxCell>
        <mxCell id="Tf2M2dXs2WBN8A7UbvzI-163" value="FK" style="shape=partialRectangle;overflow=hidden;connectable=0;fillColor=none;top=0;left=0;bottom=0;right=0;" parent="Tf2M2dXs2WBN8A7UbvzI-162" vertex="1">
          <mxGeometry width="30" height="30" as="geometry">
            <mxRectangle width="30" height="30" as="alternateBounds" />
          </mxGeometry>
        </mxCell>
        <mxCell id="Tf2M2dXs2WBN8A7UbvzI-164" value="ticket_id" style="shape=partialRectangle;overflow=hidden;connectable=0;fillColor=none;top=0;left=0;bottom=0;right=0;align=left;spacingLeft=6;" parent="Tf2M2dXs2WBN8A7UbvzI-162" vertex="1">
          <mxGeometry x="30" width="105" height="30" as="geometry">
            <mxRectangle width="105" height="30" as="alternateBounds" />
          </mxGeometry>
        </mxCell>
        <mxCell id="Tf2M2dXs2WBN8A7UbvzI-165" value="integer" style="shape=partialRectangle;overflow=hidden;connectable=0;fillColor=none;top=0;left=0;bottom=0;right=0;align=left;spacingLeft=6;" parent="Tf2M2dXs2WBN8A7UbvzI-162" vertex="1">
          <mxGeometry x="135" width="95" height="30" as="geometry">
            <mxRectangle width="95" height="30" as="alternateBounds" />
          </mxGeometry>
        </mxCell>
        <mxCell id="Tf2M2dXs2WBN8A7UbvzI-126" value="" style="shape=partialRectangle;collapsible=0;dropTarget=0;pointerEvents=0;fillColor=none;points=[[0,0.5],[1,0.5]];portConstraint=eastwest;top=0;left=0;right=0;bottom=0;" parent="Tf2M2dXs2WBN8A7UbvzI-7" vertex="1">
          <mxGeometry y="180" width="230" height="30" as="geometry" />
        </mxCell>
        <mxCell id="Tf2M2dXs2WBN8A7UbvzI-127" value="" style="shape=partialRectangle;overflow=hidden;connectable=0;fillColor=none;top=0;left=0;bottom=0;right=0;" parent="Tf2M2dXs2WBN8A7UbvzI-126" vertex="1">
          <mxGeometry width="30" height="30" as="geometry">
            <mxRectangle width="30" height="30" as="alternateBounds" />
          </mxGeometry>
        </mxCell>
        <mxCell id="Tf2M2dXs2WBN8A7UbvzI-128" value="created_at" style="shape=partialRectangle;overflow=hidden;connectable=0;fillColor=none;top=0;left=0;bottom=0;right=0;align=left;spacingLeft=6;" parent="Tf2M2dXs2WBN8A7UbvzI-126" vertex="1">
          <mxGeometry x="30" width="105" height="30" as="geometry">
            <mxRectangle width="105" height="30" as="alternateBounds" />
          </mxGeometry>
        </mxCell>
        <mxCell id="Tf2M2dXs2WBN8A7UbvzI-129" value="timestamp " style="shape=partialRectangle;overflow=hidden;connectable=0;fillColor=none;top=0;left=0;bottom=0;right=0;align=left;spacingLeft=6;" parent="Tf2M2dXs2WBN8A7UbvzI-126" vertex="1">
          <mxGeometry x="135" width="95" height="30" as="geometry">
            <mxRectangle width="95" height="30" as="alternateBounds" />
          </mxGeometry>
        </mxCell>
        <mxCell id="Tf2M2dXs2WBN8A7UbvzI-130" value="" style="shape=partialRectangle;collapsible=0;dropTarget=0;pointerEvents=0;fillColor=none;points=[[0,0.5],[1,0.5]];portConstraint=eastwest;top=0;left=0;right=0;bottom=0;" parent="Tf2M2dXs2WBN8A7UbvzI-7" vertex="1">
          <mxGeometry y="210" width="230" height="30" as="geometry" />
        </mxCell>
        <mxCell id="Tf2M2dXs2WBN8A7UbvzI-131" value="" style="shape=partialRectangle;overflow=hidden;connectable=0;fillColor=none;top=0;left=0;bottom=0;right=0;" parent="Tf2M2dXs2WBN8A7UbvzI-130" vertex="1">
          <mxGeometry width="30" height="30" as="geometry">
            <mxRectangle width="30" height="30" as="alternateBounds" />
          </mxGeometry>
        </mxCell>
        <mxCell id="Tf2M2dXs2WBN8A7UbvzI-132" value="updated_at" style="shape=partialRectangle;overflow=hidden;connectable=0;fillColor=none;top=0;left=0;bottom=0;right=0;align=left;spacingLeft=6;" parent="Tf2M2dXs2WBN8A7UbvzI-130" vertex="1">
          <mxGeometry x="30" width="105" height="30" as="geometry">
            <mxRectangle width="105" height="30" as="alternateBounds" />
          </mxGeometry>
        </mxCell>
        <mxCell id="Tf2M2dXs2WBN8A7UbvzI-133" value="timestamp " style="shape=partialRectangle;overflow=hidden;connectable=0;fillColor=none;top=0;left=0;bottom=0;right=0;align=left;spacingLeft=6;" parent="Tf2M2dXs2WBN8A7UbvzI-130" vertex="1">
          <mxGeometry x="135" width="95" height="30" as="geometry">
            <mxRectangle width="95" height="30" as="alternateBounds" />
          </mxGeometry>
        </mxCell>
        <mxCell id="Tf2M2dXs2WBN8A7UbvzI-16" value="movie" style="shape=table;startSize=30;container=1;collapsible=1;childLayout=tableLayout;fixedRows=1;rowLines=0;fontStyle=1;align=center;resizeLast=1;" parent="1" vertex="1">
          <mxGeometry x="570" y="490" width="220" height="280" as="geometry" />
        </mxCell>
        <mxCell id="Tf2M2dXs2WBN8A7UbvzI-17" value="" style="shape=partialRectangle;collapsible=0;dropTarget=0;pointerEvents=0;fillColor=none;points=[[0,0.5],[1,0.5]];portConstraint=eastwest;top=0;left=0;right=0;bottom=1;" parent="Tf2M2dXs2WBN8A7UbvzI-16" vertex="1">
          <mxGeometry y="30" width="220" height="30" as="geometry" />
        </mxCell>
        <mxCell id="Tf2M2dXs2WBN8A7UbvzI-18" value="PK" style="shape=partialRectangle;overflow=hidden;connectable=0;fillColor=none;top=0;left=0;bottom=0;right=0;fontStyle=1;" parent="Tf2M2dXs2WBN8A7UbvzI-17" vertex="1">
          <mxGeometry width="30" height="30" as="geometry">
            <mxRectangle width="30" height="30" as="alternateBounds" />
          </mxGeometry>
        </mxCell>
        <mxCell id="Tf2M2dXs2WBN8A7UbvzI-19" value="movie_id" style="shape=partialRectangle;overflow=hidden;connectable=0;fillColor=none;top=0;left=0;bottom=0;right=0;align=left;spacingLeft=6;fontStyle=5;" parent="Tf2M2dXs2WBN8A7UbvzI-17" vertex="1">
          <mxGeometry x="30" width="105" height="30" as="geometry">
            <mxRectangle width="105" height="30" as="alternateBounds" />
          </mxGeometry>
        </mxCell>
        <mxCell id="Tf2M2dXs2WBN8A7UbvzI-20" value="integer" style="shape=partialRectangle;overflow=hidden;connectable=0;fillColor=none;top=0;left=0;bottom=0;right=0;align=left;spacingLeft=6;fontStyle=5;" parent="Tf2M2dXs2WBN8A7UbvzI-17" vertex="1">
          <mxGeometry x="135" width="85" height="30" as="geometry">
            <mxRectangle width="85" height="30" as="alternateBounds" />
          </mxGeometry>
        </mxCell>
        <mxCell id="Tf2M2dXs2WBN8A7UbvzI-21" value="" style="shape=partialRectangle;collapsible=0;dropTarget=0;pointerEvents=0;fillColor=none;points=[[0,0.5],[1,0.5]];portConstraint=eastwest;top=0;left=0;right=0;bottom=0;" parent="Tf2M2dXs2WBN8A7UbvzI-16" vertex="1">
          <mxGeometry y="60" width="220" height="30" as="geometry" />
        </mxCell>
        <mxCell id="Tf2M2dXs2WBN8A7UbvzI-22" value="" style="shape=partialRectangle;overflow=hidden;connectable=0;fillColor=none;top=0;left=0;bottom=0;right=0;" parent="Tf2M2dXs2WBN8A7UbvzI-21" vertex="1">
          <mxGeometry width="30" height="30" as="geometry">
            <mxRectangle width="30" height="30" as="alternateBounds" />
          </mxGeometry>
        </mxCell>
        <mxCell id="Tf2M2dXs2WBN8A7UbvzI-23" value="title" style="shape=partialRectangle;overflow=hidden;connectable=0;fillColor=none;top=0;left=0;bottom=0;right=0;align=left;spacingLeft=6;" parent="Tf2M2dXs2WBN8A7UbvzI-21" vertex="1">
          <mxGeometry x="30" width="105" height="30" as="geometry">
            <mxRectangle width="105" height="30" as="alternateBounds" />
          </mxGeometry>
        </mxCell>
        <mxCell id="Tf2M2dXs2WBN8A7UbvzI-24" value="varchar(255)" style="shape=partialRectangle;overflow=hidden;connectable=0;fillColor=none;top=0;left=0;bottom=0;right=0;align=left;spacingLeft=6;" parent="Tf2M2dXs2WBN8A7UbvzI-21" vertex="1">
          <mxGeometry x="135" width="85" height="30" as="geometry">
            <mxRectangle width="85" height="30" as="alternateBounds" />
          </mxGeometry>
        </mxCell>
        <mxCell id="Tf2M2dXs2WBN8A7UbvzI-42" value="" style="shape=partialRectangle;collapsible=0;dropTarget=0;pointerEvents=0;fillColor=none;points=[[0,0.5],[1,0.5]];portConstraint=eastwest;top=0;left=0;right=0;bottom=0;" parent="Tf2M2dXs2WBN8A7UbvzI-16" vertex="1">
          <mxGeometry y="90" width="220" height="30" as="geometry" />
        </mxCell>
        <mxCell id="Tf2M2dXs2WBN8A7UbvzI-43" value="" style="shape=partialRectangle;overflow=hidden;connectable=0;fillColor=none;top=0;left=0;bottom=0;right=0;" parent="Tf2M2dXs2WBN8A7UbvzI-42" vertex="1">
          <mxGeometry width="30" height="30" as="geometry">
            <mxRectangle width="30" height="30" as="alternateBounds" />
          </mxGeometry>
        </mxCell>
        <mxCell id="Tf2M2dXs2WBN8A7UbvzI-44" value="rating" style="shape=partialRectangle;overflow=hidden;connectable=0;fillColor=none;top=0;left=0;bottom=0;right=0;align=left;spacingLeft=6;" parent="Tf2M2dXs2WBN8A7UbvzI-42" vertex="1">
          <mxGeometry x="30" width="105" height="30" as="geometry">
            <mxRectangle width="105" height="30" as="alternateBounds" />
          </mxGeometry>
        </mxCell>
        <mxCell id="Tf2M2dXs2WBN8A7UbvzI-45" value="varchar(15)" style="shape=partialRectangle;overflow=hidden;connectable=0;fillColor=none;top=0;left=0;bottom=0;right=0;align=left;spacingLeft=6;" parent="Tf2M2dXs2WBN8A7UbvzI-42" vertex="1">
          <mxGeometry x="135" width="85" height="30" as="geometry">
            <mxRectangle width="85" height="30" as="alternateBounds" />
          </mxGeometry>
        </mxCell>
        <mxCell id="Tf2M2dXs2WBN8A7UbvzI-46" value="" style="shape=partialRectangle;collapsible=0;dropTarget=0;pointerEvents=0;fillColor=none;points=[[0,0.5],[1,0.5]];portConstraint=eastwest;top=0;left=0;right=0;bottom=0;" parent="Tf2M2dXs2WBN8A7UbvzI-16" vertex="1">
          <mxGeometry y="120" width="220" height="30" as="geometry" />
        </mxCell>
        <mxCell id="Tf2M2dXs2WBN8A7UbvzI-47" value="" style="shape=partialRectangle;overflow=hidden;connectable=0;fillColor=none;top=0;left=0;bottom=0;right=0;" parent="Tf2M2dXs2WBN8A7UbvzI-46" vertex="1">
          <mxGeometry width="30" height="30" as="geometry">
            <mxRectangle width="30" height="30" as="alternateBounds" />
          </mxGeometry>
        </mxCell>
        <mxCell id="Tf2M2dXs2WBN8A7UbvzI-48" value="description" style="shape=partialRectangle;overflow=hidden;connectable=0;fillColor=none;top=0;left=0;bottom=0;right=0;align=left;spacingLeft=6;" parent="Tf2M2dXs2WBN8A7UbvzI-46" vertex="1">
          <mxGeometry x="30" width="105" height="30" as="geometry">
            <mxRectangle width="105" height="30" as="alternateBounds" />
          </mxGeometry>
        </mxCell>
        <mxCell id="Tf2M2dXs2WBN8A7UbvzI-49" value="varchar(511)" style="shape=partialRectangle;overflow=hidden;connectable=0;fillColor=none;top=0;left=0;bottom=0;right=0;align=left;spacingLeft=6;" parent="Tf2M2dXs2WBN8A7UbvzI-46" vertex="1">
          <mxGeometry x="135" width="85" height="30" as="geometry">
            <mxRectangle width="85" height="30" as="alternateBounds" />
          </mxGeometry>
        </mxCell>
        <mxCell id="Tf2M2dXs2WBN8A7UbvzI-67" value="" style="shape=partialRectangle;collapsible=0;dropTarget=0;pointerEvents=0;fillColor=none;points=[[0,0.5],[1,0.5]];portConstraint=eastwest;top=0;left=0;right=0;bottom=0;" parent="Tf2M2dXs2WBN8A7UbvzI-16" vertex="1">
          <mxGeometry y="150" width="220" height="30" as="geometry" />
        </mxCell>
        <mxCell id="Tf2M2dXs2WBN8A7UbvzI-68" value="" style="shape=partialRectangle;overflow=hidden;connectable=0;fillColor=none;top=0;left=0;bottom=0;right=0;" parent="Tf2M2dXs2WBN8A7UbvzI-67" vertex="1">
          <mxGeometry width="30" height="30" as="geometry">
            <mxRectangle width="30" height="30" as="alternateBounds" />
          </mxGeometry>
        </mxCell>
        <mxCell id="Tf2M2dXs2WBN8A7UbvzI-69" value="runtimeMins" style="shape=partialRectangle;overflow=hidden;connectable=0;fillColor=none;top=0;left=0;bottom=0;right=0;align=left;spacingLeft=6;" parent="Tf2M2dXs2WBN8A7UbvzI-67" vertex="1">
          <mxGeometry x="30" width="105" height="30" as="geometry">
            <mxRectangle width="105" height="30" as="alternateBounds" />
          </mxGeometry>
        </mxCell>
        <mxCell id="Tf2M2dXs2WBN8A7UbvzI-70" value="integer" style="shape=partialRectangle;overflow=hidden;connectable=0;fillColor=none;top=0;left=0;bottom=0;right=0;align=left;spacingLeft=6;" parent="Tf2M2dXs2WBN8A7UbvzI-67" vertex="1">
          <mxGeometry x="135" width="85" height="30" as="geometry">
            <mxRectangle width="85" height="30" as="alternateBounds" />
          </mxGeometry>
        </mxCell>
        <mxCell id="Tf2M2dXs2WBN8A7UbvzI-71" value="" style="shape=partialRectangle;collapsible=0;dropTarget=0;pointerEvents=0;fillColor=none;points=[[0,0.5],[1,0.5]];portConstraint=eastwest;top=0;left=0;right=0;bottom=0;" parent="Tf2M2dXs2WBN8A7UbvzI-16" vertex="1">
          <mxGeometry y="180" width="220" height="30" as="geometry" />
        </mxCell>
        <mxCell id="Tf2M2dXs2WBN8A7UbvzI-72" value="FK" style="shape=partialRectangle;overflow=hidden;connectable=0;fillColor=none;top=0;left=0;bottom=0;right=0;" parent="Tf2M2dXs2WBN8A7UbvzI-71" vertex="1">
          <mxGeometry width="30" height="30" as="geometry">
            <mxRectangle width="30" height="30" as="alternateBounds" />
          </mxGeometry>
        </mxCell>
        <mxCell id="Tf2M2dXs2WBN8A7UbvzI-73" value="screenings" style="shape=partialRectangle;overflow=hidden;connectable=0;fillColor=none;top=0;left=0;bottom=0;right=0;align=left;spacingLeft=6;" parent="Tf2M2dXs2WBN8A7UbvzI-71" vertex="1">
          <mxGeometry x="30" width="105" height="30" as="geometry">
            <mxRectangle width="105" height="30" as="alternateBounds" />
          </mxGeometry>
        </mxCell>
        <mxCell id="Tf2M2dXs2WBN8A7UbvzI-74" value="-" style="shape=partialRectangle;overflow=hidden;connectable=0;fillColor=none;top=0;left=0;bottom=0;right=0;align=left;spacingLeft=6;" parent="Tf2M2dXs2WBN8A7UbvzI-71" vertex="1">
          <mxGeometry x="135" width="85" height="30" as="geometry">
            <mxRectangle width="85" height="30" as="alternateBounds" />
          </mxGeometry>
        </mxCell>
        <mxCell id="Tf2M2dXs2WBN8A7UbvzI-75" value="" style="shape=partialRectangle;collapsible=0;dropTarget=0;pointerEvents=0;fillColor=none;points=[[0,0.5],[1,0.5]];portConstraint=eastwest;top=0;left=0;right=0;bottom=0;" parent="Tf2M2dXs2WBN8A7UbvzI-16" vertex="1">
          <mxGeometry y="210" width="220" height="30" as="geometry" />
        </mxCell>
        <mxCell id="Tf2M2dXs2WBN8A7UbvzI-76" value="" style="shape=partialRectangle;overflow=hidden;connectable=0;fillColor=none;top=0;left=0;bottom=0;right=0;" parent="Tf2M2dXs2WBN8A7UbvzI-75" vertex="1">
          <mxGeometry width="30" height="30" as="geometry">
            <mxRectangle width="30" height="30" as="alternateBounds" />
          </mxGeometry>
        </mxCell>
        <mxCell id="Tf2M2dXs2WBN8A7UbvzI-77" value="created_at" style="shape=partialRectangle;overflow=hidden;connectable=0;fillColor=none;top=0;left=0;bottom=0;right=0;align=left;spacingLeft=6;" parent="Tf2M2dXs2WBN8A7UbvzI-75" vertex="1">
          <mxGeometry x="30" width="105" height="30" as="geometry">
            <mxRectangle width="105" height="30" as="alternateBounds" />
          </mxGeometry>
        </mxCell>
        <mxCell id="Tf2M2dXs2WBN8A7UbvzI-78" value="timestamp " style="shape=partialRectangle;overflow=hidden;connectable=0;fillColor=none;top=0;left=0;bottom=0;right=0;align=left;spacingLeft=6;" parent="Tf2M2dXs2WBN8A7UbvzI-75" vertex="1">
          <mxGeometry x="135" width="85" height="30" as="geometry">
            <mxRectangle width="85" height="30" as="alternateBounds" />
          </mxGeometry>
        </mxCell>
        <mxCell id="Tf2M2dXs2WBN8A7UbvzI-96" value="" style="shape=partialRectangle;collapsible=0;dropTarget=0;pointerEvents=0;fillColor=none;points=[[0,0.5],[1,0.5]];portConstraint=eastwest;top=0;left=0;right=0;bottom=0;" parent="Tf2M2dXs2WBN8A7UbvzI-16" vertex="1">
          <mxGeometry y="240" width="220" height="30" as="geometry" />
        </mxCell>
        <mxCell id="Tf2M2dXs2WBN8A7UbvzI-97" value="" style="shape=partialRectangle;overflow=hidden;connectable=0;fillColor=none;top=0;left=0;bottom=0;right=0;" parent="Tf2M2dXs2WBN8A7UbvzI-96" vertex="1">
          <mxGeometry width="30" height="30" as="geometry">
            <mxRectangle width="30" height="30" as="alternateBounds" />
          </mxGeometry>
        </mxCell>
        <mxCell id="Tf2M2dXs2WBN8A7UbvzI-98" value="updated_at" style="shape=partialRectangle;overflow=hidden;connectable=0;fillColor=none;top=0;left=0;bottom=0;right=0;align=left;spacingLeft=6;" parent="Tf2M2dXs2WBN8A7UbvzI-96" vertex="1">
          <mxGeometry x="30" width="105" height="30" as="geometry">
            <mxRectangle width="105" height="30" as="alternateBounds" />
          </mxGeometry>
        </mxCell>
        <mxCell id="Tf2M2dXs2WBN8A7UbvzI-99" value="timestamp " style="shape=partialRectangle;overflow=hidden;connectable=0;fillColor=none;top=0;left=0;bottom=0;right=0;align=left;spacingLeft=6;" parent="Tf2M2dXs2WBN8A7UbvzI-96" vertex="1">
          <mxGeometry x="135" width="85" height="30" as="geometry">
            <mxRectangle width="85" height="30" as="alternateBounds" />
          </mxGeometry>
        </mxCell>
        <mxCell id="Tf2M2dXs2WBN8A7UbvzI-159" style="edgeStyle=orthogonalEdgeStyle;rounded=0;orthogonalLoop=1;jettySize=auto;html=1;endArrow=ERoneToMany;endFill=0;startArrow=ERmandOne;startFill=0;" parent="1" source="Tf2M2dXs2WBN8A7UbvzI-25" target="C-vyLk0tnHw3VtMMgP7b-23" edge="1">
          <mxGeometry relative="1" as="geometry">
            <Array as="points">
              <mxPoint x="630" y="280" />
            </Array>
            <mxPoint x="630" y="150" as="targetPoint" />
          </mxGeometry>
        </mxCell>
        <mxCell id="Tf2M2dXs2WBN8A7UbvzI-25" value="customer" style="shape=table;startSize=30;container=1;collapsible=1;childLayout=tableLayout;fixedRows=1;rowLines=0;fontStyle=1;align=center;resizeLast=1;" parent="1" vertex="1">
          <mxGeometry x="555" y="200" width="250" height="220" as="geometry" />
        </mxCell>
        <mxCell id="Tf2M2dXs2WBN8A7UbvzI-26" value="" style="shape=partialRectangle;collapsible=0;dropTarget=0;pointerEvents=0;fillColor=none;points=[[0,0.5],[1,0.5]];portConstraint=eastwest;top=0;left=0;right=0;bottom=1;" parent="Tf2M2dXs2WBN8A7UbvzI-25" vertex="1">
          <mxGeometry y="30" width="250" height="30" as="geometry" />
        </mxCell>
        <mxCell id="Tf2M2dXs2WBN8A7UbvzI-27" value="PK" style="shape=partialRectangle;overflow=hidden;connectable=0;fillColor=none;top=0;left=0;bottom=0;right=0;fontStyle=1;" parent="Tf2M2dXs2WBN8A7UbvzI-26" vertex="1">
          <mxGeometry width="30" height="30" as="geometry">
            <mxRectangle width="30" height="30" as="alternateBounds" />
          </mxGeometry>
        </mxCell>
        <mxCell id="Tf2M2dXs2WBN8A7UbvzI-28" value="customer_id" style="shape=partialRectangle;overflow=hidden;connectable=0;fillColor=none;top=0;left=0;bottom=0;right=0;align=left;spacingLeft=6;fontStyle=5;" parent="Tf2M2dXs2WBN8A7UbvzI-26" vertex="1">
          <mxGeometry x="30" width="105" height="30" as="geometry">
            <mxRectangle width="105" height="30" as="alternateBounds" />
          </mxGeometry>
        </mxCell>
        <mxCell id="Tf2M2dXs2WBN8A7UbvzI-29" value="integer" style="shape=partialRectangle;overflow=hidden;connectable=0;fillColor=none;top=0;left=0;bottom=0;right=0;align=left;spacingLeft=6;fontStyle=5;" parent="Tf2M2dXs2WBN8A7UbvzI-26" vertex="1">
          <mxGeometry x="135" width="115" height="30" as="geometry">
            <mxRectangle width="115" height="30" as="alternateBounds" />
          </mxGeometry>
        </mxCell>
        <mxCell id="Tf2M2dXs2WBN8A7UbvzI-30" value="" style="shape=partialRectangle;collapsible=0;dropTarget=0;pointerEvents=0;fillColor=none;points=[[0,0.5],[1,0.5]];portConstraint=eastwest;top=0;left=0;right=0;bottom=0;" parent="Tf2M2dXs2WBN8A7UbvzI-25" vertex="1">
          <mxGeometry y="60" width="250" height="30" as="geometry" />
        </mxCell>
        <mxCell id="Tf2M2dXs2WBN8A7UbvzI-31" value="" style="shape=partialRectangle;overflow=hidden;connectable=0;fillColor=none;top=0;left=0;bottom=0;right=0;" parent="Tf2M2dXs2WBN8A7UbvzI-30" vertex="1">
          <mxGeometry width="30" height="30" as="geometry">
            <mxRectangle width="30" height="30" as="alternateBounds" />
          </mxGeometry>
        </mxCell>
        <mxCell id="Tf2M2dXs2WBN8A7UbvzI-32" value="name" style="shape=partialRectangle;overflow=hidden;connectable=0;fillColor=none;top=0;left=0;bottom=0;right=0;align=left;spacingLeft=6;" parent="Tf2M2dXs2WBN8A7UbvzI-30" vertex="1">
          <mxGeometry x="30" width="105" height="30" as="geometry">
            <mxRectangle width="105" height="30" as="alternateBounds" />
          </mxGeometry>
        </mxCell>
        <mxCell id="Tf2M2dXs2WBN8A7UbvzI-33" value="varchar(255)" style="shape=partialRectangle;overflow=hidden;connectable=0;fillColor=none;top=0;left=0;bottom=0;right=0;align=left;spacingLeft=6;" parent="Tf2M2dXs2WBN8A7UbvzI-30" vertex="1">
          <mxGeometry x="135" width="115" height="30" as="geometry">
            <mxRectangle width="115" height="30" as="alternateBounds" />
          </mxGeometry>
        </mxCell>
        <mxCell id="Tf2M2dXs2WBN8A7UbvzI-34" value="" style="shape=partialRectangle;collapsible=0;dropTarget=0;pointerEvents=0;fillColor=none;points=[[0,0.5],[1,0.5]];portConstraint=eastwest;top=0;left=0;right=0;bottom=0;" parent="Tf2M2dXs2WBN8A7UbvzI-25" vertex="1">
          <mxGeometry y="90" width="250" height="30" as="geometry" />
        </mxCell>
        <mxCell id="Tf2M2dXs2WBN8A7UbvzI-35" value="" style="shape=partialRectangle;overflow=hidden;connectable=0;fillColor=none;top=0;left=0;bottom=0;right=0;" parent="Tf2M2dXs2WBN8A7UbvzI-34" vertex="1">
          <mxGeometry width="30" height="30" as="geometry">
            <mxRectangle width="30" height="30" as="alternateBounds" />
          </mxGeometry>
        </mxCell>
        <mxCell id="Tf2M2dXs2WBN8A7UbvzI-36" value="email" style="shape=partialRectangle;overflow=hidden;connectable=0;fillColor=none;top=0;left=0;bottom=0;right=0;align=left;spacingLeft=6;" parent="Tf2M2dXs2WBN8A7UbvzI-34" vertex="1">
          <mxGeometry x="30" width="105" height="30" as="geometry">
            <mxRectangle width="105" height="30" as="alternateBounds" />
          </mxGeometry>
        </mxCell>
        <mxCell id="Tf2M2dXs2WBN8A7UbvzI-37" value="varchar(255)" style="shape=partialRectangle;overflow=hidden;connectable=0;fillColor=none;top=0;left=0;bottom=0;right=0;align=left;spacingLeft=6;" parent="Tf2M2dXs2WBN8A7UbvzI-34" vertex="1">
          <mxGeometry x="135" width="115" height="30" as="geometry">
            <mxRectangle width="115" height="30" as="alternateBounds" />
          </mxGeometry>
        </mxCell>
        <mxCell id="Tf2M2dXs2WBN8A7UbvzI-38" value="" style="shape=partialRectangle;collapsible=0;dropTarget=0;pointerEvents=0;fillColor=none;points=[[0,0.5],[1,0.5]];portConstraint=eastwest;top=0;left=0;right=0;bottom=0;" parent="Tf2M2dXs2WBN8A7UbvzI-25" vertex="1">
          <mxGeometry y="120" width="250" height="30" as="geometry" />
        </mxCell>
        <mxCell id="Tf2M2dXs2WBN8A7UbvzI-39" value="" style="shape=partialRectangle;overflow=hidden;connectable=0;fillColor=none;top=0;left=0;bottom=0;right=0;" parent="Tf2M2dXs2WBN8A7UbvzI-38" vertex="1">
          <mxGeometry width="30" height="30" as="geometry">
            <mxRectangle width="30" height="30" as="alternateBounds" />
          </mxGeometry>
        </mxCell>
        <mxCell id="Tf2M2dXs2WBN8A7UbvzI-40" value="phone" style="shape=partialRectangle;overflow=hidden;connectable=0;fillColor=none;top=0;left=0;bottom=0;right=0;align=left;spacingLeft=6;" parent="Tf2M2dXs2WBN8A7UbvzI-38" vertex="1">
          <mxGeometry x="30" width="105" height="30" as="geometry">
            <mxRectangle width="105" height="30" as="alternateBounds" />
          </mxGeometry>
        </mxCell>
        <mxCell id="Tf2M2dXs2WBN8A7UbvzI-41" value="varchar(31)" style="shape=partialRectangle;overflow=hidden;connectable=0;fillColor=none;top=0;left=0;bottom=0;right=0;align=left;spacingLeft=6;" parent="Tf2M2dXs2WBN8A7UbvzI-38" vertex="1">
          <mxGeometry x="135" width="115" height="30" as="geometry">
            <mxRectangle width="115" height="30" as="alternateBounds" />
          </mxGeometry>
        </mxCell>
        <mxCell id="XKIDPTuCICJZPU0VLD_5-34" value="" style="shape=partialRectangle;collapsible=0;dropTarget=0;pointerEvents=0;fillColor=none;points=[[0,0.5],[1,0.5]];portConstraint=eastwest;top=0;left=0;right=0;bottom=0;" vertex="1" parent="Tf2M2dXs2WBN8A7UbvzI-25">
          <mxGeometry y="150" width="250" height="30" as="geometry" />
        </mxCell>
        <mxCell id="XKIDPTuCICJZPU0VLD_5-35" value="" style="shape=partialRectangle;overflow=hidden;connectable=0;fillColor=none;top=0;left=0;bottom=0;right=0;" vertex="1" parent="XKIDPTuCICJZPU0VLD_5-34">
          <mxGeometry width="30" height="30" as="geometry">
            <mxRectangle width="30" height="30" as="alternateBounds" />
          </mxGeometry>
        </mxCell>
        <mxCell id="XKIDPTuCICJZPU0VLD_5-36" value="created_at" style="shape=partialRectangle;overflow=hidden;connectable=0;fillColor=none;top=0;left=0;bottom=0;right=0;align=left;spacingLeft=6;" vertex="1" parent="XKIDPTuCICJZPU0VLD_5-34">
          <mxGeometry x="30" width="105" height="30" as="geometry">
            <mxRectangle width="105" height="30" as="alternateBounds" />
          </mxGeometry>
        </mxCell>
        <mxCell id="XKIDPTuCICJZPU0VLD_5-37" value="timestamp " style="shape=partialRectangle;overflow=hidden;connectable=0;fillColor=none;top=0;left=0;bottom=0;right=0;align=left;spacingLeft=6;" vertex="1" parent="XKIDPTuCICJZPU0VLD_5-34">
          <mxGeometry x="135" width="115" height="30" as="geometry">
            <mxRectangle width="115" height="30" as="alternateBounds" />
          </mxGeometry>
        </mxCell>
        <mxCell id="XKIDPTuCICJZPU0VLD_5-38" value="" style="shape=partialRectangle;collapsible=0;dropTarget=0;pointerEvents=0;fillColor=none;points=[[0,0.5],[1,0.5]];portConstraint=eastwest;top=0;left=0;right=0;bottom=0;" vertex="1" parent="Tf2M2dXs2WBN8A7UbvzI-25">
          <mxGeometry y="180" width="250" height="30" as="geometry" />
        </mxCell>
        <mxCell id="XKIDPTuCICJZPU0VLD_5-39" value="" style="shape=partialRectangle;overflow=hidden;connectable=0;fillColor=none;top=0;left=0;bottom=0;right=0;" vertex="1" parent="XKIDPTuCICJZPU0VLD_5-38">
          <mxGeometry width="30" height="30" as="geometry">
            <mxRectangle width="30" height="30" as="alternateBounds" />
          </mxGeometry>
        </mxCell>
        <mxCell id="XKIDPTuCICJZPU0VLD_5-40" value="updated_at" style="shape=partialRectangle;overflow=hidden;connectable=0;fillColor=none;top=0;left=0;bottom=0;right=0;align=left;spacingLeft=6;" vertex="1" parent="XKIDPTuCICJZPU0VLD_5-38">
          <mxGeometry x="30" width="105" height="30" as="geometry">
            <mxRectangle width="105" height="30" as="alternateBounds" />
          </mxGeometry>
        </mxCell>
        <mxCell id="XKIDPTuCICJZPU0VLD_5-41" value="timestamp " style="shape=partialRectangle;overflow=hidden;connectable=0;fillColor=none;top=0;left=0;bottom=0;right=0;align=left;spacingLeft=6;" vertex="1" parent="XKIDPTuCICJZPU0VLD_5-38">
          <mxGeometry x="135" width="115" height="30" as="geometry">
            <mxRectangle width="115" height="30" as="alternateBounds" />
          </mxGeometry>
        </mxCell>
        <mxCell id="Tf2M2dXs2WBN8A7UbvzI-95" style="edgeStyle=orthogonalEdgeStyle;rounded=0;orthogonalLoop=1;jettySize=auto;html=1;endArrow=ERmandOne;endFill=0;startArrow=ERzeroToMany;startFill=0;" parent="1" source="Tf2M2dXs2WBN8A7UbvzI-7" target="Tf2M2dXs2WBN8A7UbvzI-16" edge="1">
          <mxGeometry relative="1" as="geometry" />
        </mxCell>
        <mxCell id="da01DfQkahHVoAJEi5zR-34" style="edgeStyle=orthogonalEdgeStyle;rounded=0;orthogonalLoop=1;jettySize=auto;html=1;startArrow=ERmandOne;startFill=0;endArrow=ERoneToMany;endFill=0;" parent="1" source="da01DfQkahHVoAJEi5zR-1" target="Tf2M2dXs2WBN8A7UbvzI-7" edge="1">
          <mxGeometry relative="1" as="geometry" />
        </mxCell>
        <mxCell id="da01DfQkahHVoAJEi5zR-1" value="display" style="shape=table;startSize=30;container=1;collapsible=1;childLayout=tableLayout;fixedRows=1;rowLines=0;fontStyle=1;align=center;resizeLast=1;" parent="1" vertex="1">
          <mxGeometry x="-5" y="535" width="230" height="190" as="geometry" />
        </mxCell>
        <mxCell id="da01DfQkahHVoAJEi5zR-2" value="" style="shape=partialRectangle;collapsible=0;dropTarget=0;pointerEvents=0;fillColor=none;points=[[0,0.5],[1,0.5]];portConstraint=eastwest;top=0;left=0;right=0;bottom=1;" parent="da01DfQkahHVoAJEi5zR-1" vertex="1">
          <mxGeometry y="30" width="230" height="30" as="geometry" />
        </mxCell>
        <mxCell id="da01DfQkahHVoAJEi5zR-3" value="PK" style="shape=partialRectangle;overflow=hidden;connectable=0;fillColor=none;top=0;left=0;bottom=0;right=0;fontStyle=1;" parent="da01DfQkahHVoAJEi5zR-2" vertex="1">
          <mxGeometry width="30" height="30" as="geometry">
            <mxRectangle width="30" height="30" as="alternateBounds" />
          </mxGeometry>
        </mxCell>
        <mxCell id="da01DfQkahHVoAJEi5zR-4" value="display_id" style="shape=partialRectangle;overflow=hidden;connectable=0;fillColor=none;top=0;left=0;bottom=0;right=0;align=left;spacingLeft=6;fontStyle=5;" parent="da01DfQkahHVoAJEi5zR-2" vertex="1">
          <mxGeometry x="30" width="105" height="30" as="geometry">
            <mxRectangle width="105" height="30" as="alternateBounds" />
          </mxGeometry>
        </mxCell>
        <mxCell id="da01DfQkahHVoAJEi5zR-5" value="integer" style="shape=partialRectangle;overflow=hidden;connectable=0;fillColor=none;top=0;left=0;bottom=0;right=0;align=left;spacingLeft=6;fontStyle=5;" parent="da01DfQkahHVoAJEi5zR-2" vertex="1">
          <mxGeometry x="135" width="95" height="30" as="geometry">
            <mxRectangle width="95" height="30" as="alternateBounds" />
          </mxGeometry>
        </mxCell>
        <mxCell id="da01DfQkahHVoAJEi5zR-10" value="" style="shape=partialRectangle;collapsible=0;dropTarget=0;pointerEvents=0;fillColor=none;points=[[0,0.5],[1,0.5]];portConstraint=eastwest;top=0;left=0;right=0;bottom=0;" parent="da01DfQkahHVoAJEi5zR-1" vertex="1">
          <mxGeometry y="60" width="230" height="30" as="geometry" />
        </mxCell>
        <mxCell id="da01DfQkahHVoAJEi5zR-11" value="" style="shape=partialRectangle;overflow=hidden;connectable=0;fillColor=none;top=0;left=0;bottom=0;right=0;" parent="da01DfQkahHVoAJEi5zR-10" vertex="1">
          <mxGeometry width="30" height="30" as="geometry">
            <mxRectangle width="30" height="30" as="alternateBounds" />
          </mxGeometry>
        </mxCell>
        <mxCell id="da01DfQkahHVoAJEi5zR-12" value="capacity" style="shape=partialRectangle;overflow=hidden;connectable=0;fillColor=none;top=0;left=0;bottom=0;right=0;align=left;spacingLeft=6;" parent="da01DfQkahHVoAJEi5zR-10" vertex="1">
          <mxGeometry x="30" width="105" height="30" as="geometry">
            <mxRectangle width="105" height="30" as="alternateBounds" />
          </mxGeometry>
        </mxCell>
        <mxCell id="da01DfQkahHVoAJEi5zR-13" value="integer" style="shape=partialRectangle;overflow=hidden;connectable=0;fillColor=none;top=0;left=0;bottom=0;right=0;align=left;spacingLeft=6;" parent="da01DfQkahHVoAJEi5zR-10" vertex="1">
          <mxGeometry x="135" width="95" height="30" as="geometry">
            <mxRectangle width="95" height="30" as="alternateBounds" />
          </mxGeometry>
        </mxCell>
        <mxCell id="da01DfQkahHVoAJEi5zR-35" value="" style="shape=partialRectangle;collapsible=0;dropTarget=0;pointerEvents=0;fillColor=none;points=[[0,0.5],[1,0.5]];portConstraint=eastwest;top=0;left=0;right=0;bottom=0;" parent="da01DfQkahHVoAJEi5zR-1" vertex="1">
          <mxGeometry y="90" width="230" height="30" as="geometry" />
        </mxCell>
        <mxCell id="da01DfQkahHVoAJEi5zR-36" value="" style="shape=partialRectangle;overflow=hidden;connectable=0;fillColor=none;top=0;left=0;bottom=0;right=0;" parent="da01DfQkahHVoAJEi5zR-35" vertex="1">
          <mxGeometry width="30" height="30" as="geometry">
            <mxRectangle width="30" height="30" as="alternateBounds" />
          </mxGeometry>
        </mxCell>
        <mxCell id="da01DfQkahHVoAJEi5zR-37" value="screen_number" style="shape=partialRectangle;overflow=hidden;connectable=0;fillColor=none;top=0;left=0;bottom=0;right=0;align=left;spacingLeft=6;" parent="da01DfQkahHVoAJEi5zR-35" vertex="1">
          <mxGeometry x="30" width="105" height="30" as="geometry">
            <mxRectangle width="105" height="30" as="alternateBounds" />
          </mxGeometry>
        </mxCell>
        <mxCell id="da01DfQkahHVoAJEi5zR-38" value="integer" style="shape=partialRectangle;overflow=hidden;connectable=0;fillColor=none;top=0;left=0;bottom=0;right=0;align=left;spacingLeft=6;" parent="da01DfQkahHVoAJEi5zR-35" vertex="1">
          <mxGeometry x="135" width="95" height="30" as="geometry">
            <mxRectangle width="95" height="30" as="alternateBounds" />
          </mxGeometry>
        </mxCell>
        <mxCell id="da01DfQkahHVoAJEi5zR-26" value="" style="shape=partialRectangle;collapsible=0;dropTarget=0;pointerEvents=0;fillColor=none;points=[[0,0.5],[1,0.5]];portConstraint=eastwest;top=0;left=0;right=0;bottom=0;" parent="da01DfQkahHVoAJEi5zR-1" vertex="1">
          <mxGeometry y="120" width="230" height="30" as="geometry" />
        </mxCell>
        <mxCell id="da01DfQkahHVoAJEi5zR-27" value="" style="shape=partialRectangle;overflow=hidden;connectable=0;fillColor=none;top=0;left=0;bottom=0;right=0;" parent="da01DfQkahHVoAJEi5zR-26" vertex="1">
          <mxGeometry width="30" height="30" as="geometry">
            <mxRectangle width="30" height="30" as="alternateBounds" />
          </mxGeometry>
        </mxCell>
        <mxCell id="da01DfQkahHVoAJEi5zR-28" value="created_at" style="shape=partialRectangle;overflow=hidden;connectable=0;fillColor=none;top=0;left=0;bottom=0;right=0;align=left;spacingLeft=6;" parent="da01DfQkahHVoAJEi5zR-26" vertex="1">
          <mxGeometry x="30" width="105" height="30" as="geometry">
            <mxRectangle width="105" height="30" as="alternateBounds" />
          </mxGeometry>
        </mxCell>
        <mxCell id="da01DfQkahHVoAJEi5zR-29" value="timestamp " style="shape=partialRectangle;overflow=hidden;connectable=0;fillColor=none;top=0;left=0;bottom=0;right=0;align=left;spacingLeft=6;" parent="da01DfQkahHVoAJEi5zR-26" vertex="1">
          <mxGeometry x="135" width="95" height="30" as="geometry">
            <mxRectangle width="95" height="30" as="alternateBounds" />
          </mxGeometry>
        </mxCell>
        <mxCell id="da01DfQkahHVoAJEi5zR-30" value="" style="shape=partialRectangle;collapsible=0;dropTarget=0;pointerEvents=0;fillColor=none;points=[[0,0.5],[1,0.5]];portConstraint=eastwest;top=0;left=0;right=0;bottom=0;" parent="da01DfQkahHVoAJEi5zR-1" vertex="1">
          <mxGeometry y="150" width="230" height="30" as="geometry" />
        </mxCell>
        <mxCell id="da01DfQkahHVoAJEi5zR-31" value="" style="shape=partialRectangle;overflow=hidden;connectable=0;fillColor=none;top=0;left=0;bottom=0;right=0;" parent="da01DfQkahHVoAJEi5zR-30" vertex="1">
          <mxGeometry width="30" height="30" as="geometry">
            <mxRectangle width="30" height="30" as="alternateBounds" />
          </mxGeometry>
        </mxCell>
        <mxCell id="da01DfQkahHVoAJEi5zR-32" value="updated_at" style="shape=partialRectangle;overflow=hidden;connectable=0;fillColor=none;top=0;left=0;bottom=0;right=0;align=left;spacingLeft=6;" parent="da01DfQkahHVoAJEi5zR-30" vertex="1">
          <mxGeometry x="30" width="105" height="30" as="geometry">
            <mxRectangle width="105" height="30" as="alternateBounds" />
          </mxGeometry>
        </mxCell>
        <mxCell id="da01DfQkahHVoAJEi5zR-33" value="timestamp " style="shape=partialRectangle;overflow=hidden;connectable=0;fillColor=none;top=0;left=0;bottom=0;right=0;align=left;spacingLeft=6;" parent="da01DfQkahHVoAJEi5zR-30" vertex="1">
          <mxGeometry x="135" width="95" height="30" as="geometry">
            <mxRectangle width="95" height="30" as="alternateBounds" />
          </mxGeometry>
        </mxCell>
        <mxCell id="da01DfQkahHVoAJEi5zR-80" style="edgeStyle=orthogonalEdgeStyle;rounded=0;orthogonalLoop=1;jettySize=auto;html=1;endArrow=ERmandOne;endFill=0;startArrow=ERoneToMany;startFill=0;" parent="1" source="da01DfQkahHVoAJEi5zR-56" target="da01DfQkahHVoAJEi5zR-1" edge="1">
          <mxGeometry relative="1" as="geometry">
            <Array as="points">
              <mxPoint x="110" y="400" />
              <mxPoint x="110" y="400" />
            </Array>
          </mxGeometry>
        </mxCell>
        <mxCell id="XKIDPTuCICJZPU0VLD_5-11" style="edgeStyle=orthogonalEdgeStyle;rounded=0;orthogonalLoop=1;jettySize=auto;html=1;endArrow=none;endFill=0;startArrow=ERoneToMany;startFill=0;" edge="1" parent="1" source="da01DfQkahHVoAJEi5zR-39" target="da01DfQkahHVoAJEi5zR-1">
          <mxGeometry relative="1" as="geometry">
            <Array as="points">
              <mxPoint x="-160" y="555" />
            </Array>
          </mxGeometry>
        </mxCell>
        <mxCell id="da01DfQkahHVoAJEi5zR-39" value="seat" style="shape=table;startSize=30;container=1;collapsible=1;childLayout=tableLayout;fixedRows=1;rowLines=0;fontStyle=1;align=center;resizeLast=1;" parent="1" vertex="1">
          <mxGeometry x="-280" y="360" width="220" height="160" as="geometry" />
        </mxCell>
        <mxCell id="da01DfQkahHVoAJEi5zR-40" value="" style="shape=partialRectangle;collapsible=0;dropTarget=0;pointerEvents=0;fillColor=none;points=[[0,0.5],[1,0.5]];portConstraint=eastwest;top=0;left=0;right=0;bottom=0;" parent="da01DfQkahHVoAJEi5zR-39" vertex="1">
          <mxGeometry y="30" width="220" height="30" as="geometry" />
        </mxCell>
        <mxCell id="da01DfQkahHVoAJEi5zR-41" value="PK" style="shape=partialRectangle;overflow=hidden;connectable=0;fillColor=none;top=0;left=0;bottom=0;right=0;fontStyle=1;" parent="da01DfQkahHVoAJEi5zR-40" vertex="1">
          <mxGeometry width="50" height="30" as="geometry">
            <mxRectangle width="50" height="30" as="alternateBounds" />
          </mxGeometry>
        </mxCell>
        <mxCell id="da01DfQkahHVoAJEi5zR-42" value="seat_id" style="shape=partialRectangle;overflow=hidden;connectable=0;fillColor=none;top=0;left=0;bottom=0;right=0;align=left;spacingLeft=6;fontStyle=5;" parent="da01DfQkahHVoAJEi5zR-40" vertex="1">
          <mxGeometry x="50" width="90" height="30" as="geometry">
            <mxRectangle width="90" height="30" as="alternateBounds" />
          </mxGeometry>
        </mxCell>
        <mxCell id="da01DfQkahHVoAJEi5zR-43" value="integer" style="shape=partialRectangle;overflow=hidden;connectable=0;fillColor=none;top=0;left=0;bottom=0;right=0;align=left;spacingLeft=6;fontStyle=5;" parent="da01DfQkahHVoAJEi5zR-40" vertex="1">
          <mxGeometry x="140" width="80" height="30" as="geometry">
            <mxRectangle width="80" height="30" as="alternateBounds" />
          </mxGeometry>
        </mxCell>
        <mxCell id="da01DfQkahHVoAJEi5zR-44" value="" style="shape=partialRectangle;collapsible=0;dropTarget=0;pointerEvents=0;fillColor=none;points=[[0,0.5],[1,0.5]];portConstraint=eastwest;top=0;left=0;right=0;bottom=1;" parent="da01DfQkahHVoAJEi5zR-39" vertex="1">
          <mxGeometry y="60" width="220" height="30" as="geometry" />
        </mxCell>
        <mxCell id="da01DfQkahHVoAJEi5zR-45" value="PK, FK" style="shape=partialRectangle;overflow=hidden;connectable=0;fillColor=none;top=0;left=0;bottom=0;right=0;" parent="da01DfQkahHVoAJEi5zR-44" vertex="1">
          <mxGeometry width="50" height="30" as="geometry">
            <mxRectangle width="50" height="30" as="alternateBounds" />
          </mxGeometry>
        </mxCell>
        <mxCell id="da01DfQkahHVoAJEi5zR-46" value="display_id" style="shape=partialRectangle;overflow=hidden;connectable=0;fillColor=none;top=0;left=0;bottom=0;right=0;align=left;spacingLeft=6;fontStyle=4" parent="da01DfQkahHVoAJEi5zR-44" vertex="1">
          <mxGeometry x="50" width="90" height="30" as="geometry">
            <mxRectangle width="90" height="30" as="alternateBounds" />
          </mxGeometry>
        </mxCell>
        <mxCell id="da01DfQkahHVoAJEi5zR-47" value="integer" style="shape=partialRectangle;overflow=hidden;connectable=0;fillColor=none;top=0;left=0;bottom=0;right=0;align=left;spacingLeft=6;fontStyle=4" parent="da01DfQkahHVoAJEi5zR-44" vertex="1">
          <mxGeometry x="140" width="80" height="30" as="geometry">
            <mxRectangle width="80" height="30" as="alternateBounds" />
          </mxGeometry>
        </mxCell>
        <mxCell id="da01DfQkahHVoAJEi5zR-48" value="" style="shape=partialRectangle;collapsible=0;dropTarget=0;pointerEvents=0;fillColor=none;points=[[0,0.5],[1,0.5]];portConstraint=eastwest;top=0;left=0;right=0;bottom=0;" parent="da01DfQkahHVoAJEi5zR-39" vertex="1">
          <mxGeometry y="90" width="220" height="30" as="geometry" />
        </mxCell>
        <mxCell id="da01DfQkahHVoAJEi5zR-49" value="" style="shape=partialRectangle;overflow=hidden;connectable=0;fillColor=none;top=0;left=0;bottom=0;right=0;" parent="da01DfQkahHVoAJEi5zR-48" vertex="1">
          <mxGeometry width="50" height="30" as="geometry">
            <mxRectangle width="50" height="30" as="alternateBounds" />
          </mxGeometry>
        </mxCell>
        <mxCell id="da01DfQkahHVoAJEi5zR-50" value="row_number" style="shape=partialRectangle;overflow=hidden;connectable=0;fillColor=none;top=0;left=0;bottom=0;right=0;align=left;spacingLeft=6;" parent="da01DfQkahHVoAJEi5zR-48" vertex="1">
          <mxGeometry x="50" width="90" height="30" as="geometry">
            <mxRectangle width="90" height="30" as="alternateBounds" />
          </mxGeometry>
        </mxCell>
        <mxCell id="da01DfQkahHVoAJEi5zR-51" value="integer" style="shape=partialRectangle;overflow=hidden;connectable=0;fillColor=none;top=0;left=0;bottom=0;right=0;align=left;spacingLeft=6;" parent="da01DfQkahHVoAJEi5zR-48" vertex="1">
          <mxGeometry x="140" width="80" height="30" as="geometry">
            <mxRectangle width="80" height="30" as="alternateBounds" />
          </mxGeometry>
        </mxCell>
        <mxCell id="da01DfQkahHVoAJEi5zR-52" value="" style="shape=partialRectangle;collapsible=0;dropTarget=0;pointerEvents=0;fillColor=none;points=[[0,0.5],[1,0.5]];portConstraint=eastwest;top=0;left=0;right=0;bottom=0;" parent="da01DfQkahHVoAJEi5zR-39" vertex="1">
          <mxGeometry y="120" width="220" height="30" as="geometry" />
        </mxCell>
        <mxCell id="da01DfQkahHVoAJEi5zR-53" value="" style="shape=partialRectangle;overflow=hidden;connectable=0;fillColor=none;top=0;left=0;bottom=0;right=0;" parent="da01DfQkahHVoAJEi5zR-52" vertex="1">
          <mxGeometry width="50" height="30" as="geometry">
            <mxRectangle width="50" height="30" as="alternateBounds" />
          </mxGeometry>
        </mxCell>
        <mxCell id="da01DfQkahHVoAJEi5zR-54" value="seat_number" style="shape=partialRectangle;overflow=hidden;connectable=0;fillColor=none;top=0;left=0;bottom=0;right=0;align=left;spacingLeft=6;" parent="da01DfQkahHVoAJEi5zR-52" vertex="1">
          <mxGeometry x="50" width="90" height="30" as="geometry">
            <mxRectangle width="90" height="30" as="alternateBounds" />
          </mxGeometry>
        </mxCell>
        <mxCell id="da01DfQkahHVoAJEi5zR-55" value="integer" style="shape=partialRectangle;overflow=hidden;connectable=0;fillColor=none;top=0;left=0;bottom=0;right=0;align=left;spacingLeft=6;" parent="da01DfQkahHVoAJEi5zR-52" vertex="1">
          <mxGeometry x="140" width="80" height="30" as="geometry">
            <mxRectangle width="80" height="30" as="alternateBounds" />
          </mxGeometry>
        </mxCell>
        <mxCell id="da01DfQkahHVoAJEi5zR-77" style="edgeStyle=orthogonalEdgeStyle;rounded=0;orthogonalLoop=1;jettySize=auto;html=1;startArrow=ERoneToMany;startFill=0;endArrow=ERmandOne;endFill=0;" parent="1" source="da01DfQkahHVoAJEi5zR-56" target="C-vyLk0tnHw3VtMMgP7b-23" edge="1">
          <mxGeometry relative="1" as="geometry" />
        </mxCell>
        <mxCell id="da01DfQkahHVoAJEi5zR-78" style="edgeStyle=orthogonalEdgeStyle;rounded=0;orthogonalLoop=1;jettySize=auto;html=1;endArrow=ERoneToMany;endFill=0;startArrow=ERoneToMany;startFill=0;" parent="1" source="da01DfQkahHVoAJEi5zR-56" target="da01DfQkahHVoAJEi5zR-39" edge="1">
          <mxGeometry relative="1" as="geometry">
            <Array as="points">
              <mxPoint x="-160" y="310" />
            </Array>
          </mxGeometry>
        </mxCell>
        <mxCell id="da01DfQkahHVoAJEi5zR-56" value="ticketSeat" style="shape=table;startSize=30;container=1;collapsible=1;childLayout=tableLayout;fixedRows=1;rowLines=0;fontStyle=1;align=center;resizeLast=1;" parent="1" vertex="1">
          <mxGeometry x="-10" y="230" width="240" height="160" as="geometry" />
        </mxCell>
        <mxCell id="da01DfQkahHVoAJEi5zR-57" value="" style="shape=partialRectangle;collapsible=0;dropTarget=0;pointerEvents=0;fillColor=none;points=[[0,0.5],[1,0.5]];portConstraint=eastwest;top=0;left=0;right=0;bottom=0;strokeColor=default;" parent="da01DfQkahHVoAJEi5zR-56" vertex="1">
          <mxGeometry y="30" width="240" height="30" as="geometry" />
        </mxCell>
        <mxCell id="da01DfQkahHVoAJEi5zR-58" value="PK, FK" style="shape=partialRectangle;overflow=hidden;connectable=0;fillColor=none;top=0;left=0;bottom=0;right=0;fontStyle=0;" parent="da01DfQkahHVoAJEi5zR-57" vertex="1">
          <mxGeometry width="45" height="30" as="geometry">
            <mxRectangle width="45" height="30" as="alternateBounds" />
          </mxGeometry>
        </mxCell>
        <mxCell id="da01DfQkahHVoAJEi5zR-59" value="seat_id" style="shape=partialRectangle;overflow=hidden;connectable=0;fillColor=none;top=0;left=0;bottom=0;right=0;align=left;spacingLeft=6;fontStyle=4;" parent="da01DfQkahHVoAJEi5zR-57" vertex="1">
          <mxGeometry x="45" width="95" height="30" as="geometry">
            <mxRectangle width="95" height="30" as="alternateBounds" />
          </mxGeometry>
        </mxCell>
        <mxCell id="da01DfQkahHVoAJEi5zR-60" value="integer" style="shape=partialRectangle;overflow=hidden;connectable=0;fillColor=none;top=0;left=0;bottom=0;right=0;align=left;spacingLeft=6;fontStyle=5;" parent="da01DfQkahHVoAJEi5zR-57" vertex="1">
          <mxGeometry x="140" width="100" height="30" as="geometry">
            <mxRectangle width="100" height="30" as="alternateBounds" />
          </mxGeometry>
        </mxCell>
        <mxCell id="XKIDPTuCICJZPU0VLD_5-7" value="" style="shape=partialRectangle;collapsible=0;dropTarget=0;pointerEvents=0;fillColor=none;points=[[0,0.5],[1,0.5]];portConstraint=eastwest;top=0;left=0;right=0;bottom=0;" vertex="1" parent="da01DfQkahHVoAJEi5zR-56">
          <mxGeometry y="60" width="240" height="30" as="geometry" />
        </mxCell>
        <mxCell id="XKIDPTuCICJZPU0VLD_5-8" value="PK, FK" style="shape=partialRectangle;overflow=hidden;connectable=0;fillColor=none;top=0;left=0;bottom=0;right=0;" vertex="1" parent="XKIDPTuCICJZPU0VLD_5-7">
          <mxGeometry width="45" height="30" as="geometry">
            <mxRectangle width="45" height="30" as="alternateBounds" />
          </mxGeometry>
        </mxCell>
        <mxCell id="XKIDPTuCICJZPU0VLD_5-9" value="display_id" style="shape=partialRectangle;overflow=hidden;connectable=0;fillColor=none;top=0;left=0;bottom=0;right=0;align=left;spacingLeft=6;fontStyle=4" vertex="1" parent="XKIDPTuCICJZPU0VLD_5-7">
          <mxGeometry x="45" width="95" height="30" as="geometry">
            <mxRectangle width="95" height="30" as="alternateBounds" />
          </mxGeometry>
        </mxCell>
        <mxCell id="XKIDPTuCICJZPU0VLD_5-10" value="integer" style="shape=partialRectangle;overflow=hidden;connectable=0;fillColor=none;top=0;left=0;bottom=0;right=0;align=left;spacingLeft=6;fontStyle=4" vertex="1" parent="XKIDPTuCICJZPU0VLD_5-7">
          <mxGeometry x="140" width="100" height="30" as="geometry">
            <mxRectangle width="100" height="30" as="alternateBounds" />
          </mxGeometry>
        </mxCell>
        <mxCell id="XKIDPTuCICJZPU0VLD_5-1" value="" style="shape=partialRectangle;collapsible=0;dropTarget=0;pointerEvents=0;fillColor=none;points=[[0,0.5],[1,0.5]];portConstraint=eastwest;top=0;left=0;right=0;bottom=1;" vertex="1" parent="da01DfQkahHVoAJEi5zR-56">
          <mxGeometry y="90" width="240" height="30" as="geometry" />
        </mxCell>
        <mxCell id="XKIDPTuCICJZPU0VLD_5-2" value="PK, FK" style="shape=partialRectangle;overflow=hidden;connectable=0;fillColor=none;top=0;left=0;bottom=0;right=0;" vertex="1" parent="XKIDPTuCICJZPU0VLD_5-1">
          <mxGeometry width="45" height="30" as="geometry">
            <mxRectangle width="45" height="30" as="alternateBounds" />
          </mxGeometry>
        </mxCell>
        <mxCell id="XKIDPTuCICJZPU0VLD_5-3" value="screening_id" style="shape=partialRectangle;overflow=hidden;connectable=0;fillColor=none;top=0;left=0;bottom=0;right=0;align=left;spacingLeft=6;fontStyle=4" vertex="1" parent="XKIDPTuCICJZPU0VLD_5-1">
          <mxGeometry x="45" width="95" height="30" as="geometry">
            <mxRectangle width="95" height="30" as="alternateBounds" />
          </mxGeometry>
        </mxCell>
        <mxCell id="XKIDPTuCICJZPU0VLD_5-4" value="integer" style="shape=partialRectangle;overflow=hidden;connectable=0;fillColor=none;top=0;left=0;bottom=0;right=0;align=left;spacingLeft=6;fontStyle=4" vertex="1" parent="XKIDPTuCICJZPU0VLD_5-1">
          <mxGeometry x="140" width="100" height="30" as="geometry">
            <mxRectangle width="100" height="30" as="alternateBounds" />
          </mxGeometry>
        </mxCell>
        <mxCell id="da01DfQkahHVoAJEi5zR-73" value="" style="shape=partialRectangle;collapsible=0;dropTarget=0;pointerEvents=0;fillColor=none;points=[[0,0.5],[1,0.5]];portConstraint=eastwest;top=0;left=0;right=0;bottom=0;" parent="da01DfQkahHVoAJEi5zR-56" vertex="1">
          <mxGeometry y="120" width="240" height="30" as="geometry" />
        </mxCell>
        <mxCell id="da01DfQkahHVoAJEi5zR-74" value="FK" style="shape=partialRectangle;overflow=hidden;connectable=0;fillColor=none;top=0;left=0;bottom=0;right=0;" parent="da01DfQkahHVoAJEi5zR-73" vertex="1">
          <mxGeometry width="45" height="30" as="geometry">
            <mxRectangle width="45" height="30" as="alternateBounds" />
          </mxGeometry>
        </mxCell>
        <mxCell id="da01DfQkahHVoAJEi5zR-75" value="ticket_id" style="shape=partialRectangle;overflow=hidden;connectable=0;fillColor=none;top=0;left=0;bottom=0;right=0;align=left;spacingLeft=6;" parent="da01DfQkahHVoAJEi5zR-73" vertex="1">
          <mxGeometry x="45" width="95" height="30" as="geometry">
            <mxRectangle width="95" height="30" as="alternateBounds" />
          </mxGeometry>
        </mxCell>
        <mxCell id="da01DfQkahHVoAJEi5zR-76" value="integer" style="shape=partialRectangle;overflow=hidden;connectable=0;fillColor=none;top=0;left=0;bottom=0;right=0;align=left;spacingLeft=6;" parent="da01DfQkahHVoAJEi5zR-73" vertex="1">
          <mxGeometry x="140" width="100" height="30" as="geometry">
            <mxRectangle width="100" height="30" as="alternateBounds" />
          </mxGeometry>
        </mxCell>
      </root>
    </mxGraphModel>
  </diagram>
</mxfile>
